# MagicaVoxel @ Ephtracy

# group
o 

# material
mtllib Tile grass.mtl
usemtl palette

# normals
vn -1 0 0
vn 1 0 0
vn 0 0 1
vn 0 0 -1
vn 0 -1 0
vn 0 1 0

# texcoords
vt 0.369141 0.5
vt 0.373047 0.5
vt 0.748047 0.5
vt 0.892578 0.5

# verts
v -0.5 0 0.5
v -0.5 0 -0.5
v -0.5 0.3 0.5
v -0.5 0.3 -0.5
v -0.5 0.4 0.2
v -0.5 0.4 0.1
v -0.5 0.4 -0.4
v -0.5 0.4 -0.5
v -0.5 0.5 0.1
v -0.5 0.5 0
v -0.5 0.5 -0.2
v -0.5 0.5 -0.3
v -0.5 0.6 0.5
v -0.5 0.6 0.3
v -0.5 0.6 -0.1
v -0.5 0.6 -0.2
v -0.5 0.7 0.3
v -0.5 0.7 0.2
v -0.5 0.7 0
v -0.5 0.7 -0.1
v -0.5 0.7 -0.3
v -0.5 0.7 -0.4
v -0.5 0.8 0.3
v -0.5 0.8 0.2
v -0.5 0.9 0.5
v -0.5 0.9 0.4
v -0.5 0.9 0.3
v -0.5 0.9 0.2
v -0.5 0.9 -0.1
v -0.5 0.9 -0.4
v -0.5 1 0.5
v -0.5 1 0.4
v -0.5 1 -0.1
v -0.5 1 -0.4
v -0.5 1 -0.5
v 0.5 0 0.5
v 0.5 0 -0.5
v 0.5 0.3 0.5
v 0.5 0.3 -0.5
v 0.5 0.4 0.2
v 0.5 0.4 0
v 0.5 0.4 -0.2
v 0.5 0.4 -0.3
v 0.5 0.4 -0.4
v 0.5 0.5 0.5
v 0.5 0.5 0.4
v 0.5 0.5 -0.3
v 0.5 0.5 -0.4
v 0.5 0.6 0.3
v 0.5 0.6 0.2
v 0.5 0.7 0.4
v 0.5 0.7 0.3
v 0.5 0.7 0
v 0.5 0.7 -0.2
v 0.5 0.7 -0.4
v 0.5 0.7 -0.5
v 0.5 0.8 0.3
v 0.5 0.8 0.2
v 0.5 0.8 0
v 0.5 0.8 -0.1
v 0.5 0.9 0.3
v 0.5 0.9 0.2
v 0.5 0.9 0
v 0.5 0.9 -0.1
v 0.5 1 0.5
v 0.5 1 -0.5
v -0.5 0 0.5
v -0.5 0.3 0.5
v -0.5 0.6 0.5
v -0.5 0.9 0.5
v -0.5 1 0.5
v -0.4 0.9 0.5
v -0.4 1 0.5
v -0.3 0.6 0.5
v -0.3 0.7 0.5
v -0.3 0.8 0.5
v -0.3 0.9 0.5
v -0.2 0.8 0.5
v -0.2 0.9 0.5
v -0.1 0.9 0.5
v -0.1 1 0.5
v 0 0.9 0.5
v 0 1 0.5
v 0.1 0.9 0.5
v 0.1 1 0.5
v 0.2 0.6 0.5
v 0.2 0.7 0.5
v 0.2 0.9 0.5
v 0.2 1 0.5
v 0.4 0.5 0.5
v 0.4 0.6 0.5
v 0.5 0 0.5
v 0.5 0.3 0.5
v 0.5 0.5 0.5
v 0.5 1 0.5
v -0.5 0 -0.5
v -0.5 0.3 -0.5
v -0.5 0.4 -0.5
v -0.5 1 -0.5
v -0.4 0.4 -0.5
v -0.4 0.6 -0.5
v -0.3 0.6 -0.5
v -0.3 0.7 -0.5
v -0.2 0.5 -0.5
v -0.2 0.7 -0.5
v -0.2 0.8 -0.5
v -0.2 0.9 -0.5
v -0.1 0.5 -0.5
v -0.1 0.6 -0.5
v -0.1 0.8 -0.5
v -0.1 0.9 -0.5
v 0 0.6 -0.5
v 0 0.7 -0.5
v 0.1 0.6 -0.5
v 0.1 0.7 -0.5
v 0.2 0.5 -0.5
v 0.2 0.6 -0.5
v 0.2 0.9 -0.5
v 0.2 1 -0.5
v 0.3 0.4 -0.5
v 0.3 0.5 -0.5
v 0.3 0.9 -0.5
v 0.3 1 -0.5
v 0.4 0.4 -0.5
v 0.4 0.7 -0.5
v 0.5 0 -0.5
v 0.5 0.3 -0.5
v 0.5 0.7 -0.5
v 0.5 1 -0.5
v -0.5 0 0.5
v 0.5 0 0.5
v -0.5 0 -0.5
v 0.5 0 -0.5
v -0.5 1 0.5
v -0.4 1 0.5
v -0.1 1 0.5
v 0 1 0.5
v 0.1 1 0.5
v 0.2 1 0.5
v 0.5 1 0.5
v -0.5 1 0.4
v -0.4 1 0.4
v -0.1 1 0.4
v 0 1 0.4
v 0.1 1 0.4
v 0.2 1 0.4
v -0.3 1 0.3
v -0.2 1 0.3
v 0.3 1 0.3
v 0.4 1 0.3
v -0.3 1 0.2
v -0.2 1 0.2
v 0.3 1 0.2
v 0.4 1 0.2
v 0.2 1 0.1
v 0.3 1 0.1
v 0 1 0
v 0.2 1 0
v 0.3 1 0
v 0.4 1 0
v -0.5 1 -0.1
v -0.3 1 -0.1
v 0 1 -0.1
v 0.2 1 -0.1
v 0.3 1 -0.1
v 0.4 1 -0.1
v -0.1 1 -0.2
v 0 1 -0.2
v -0.1 1 -0.3
v 0 1 -0.3
v -0.5 1 -0.4
v -0.3 1 -0.4
v 0.2 1 -0.4
v 0.3 1 -0.4
v -0.5 1 -0.5
v 0.2 1 -0.5
v 0.3 1 -0.5
v 0.5 1 -0.5

# faces
f 3/2/1 2/2/1 1/2/1
f 4/2/1 2/2/1 3/2/1
f 5/1/1 4/1/1 3/1/1
f 6/1/1 4/1/1 5/1/1
f 7/1/1 4/1/1 6/1/1
f 8/1/1 4/1/1 7/1/1
f 9/4/1 6/4/1 5/4/1
f 9/1/1 7/1/1 6/1/1
f 10/1/1 7/1/1 9/1/1
f 11/1/1 7/1/1 10/1/1
f 12/1/1 7/1/1 11/1/1
f 13/1/1 5/1/1 3/1/1
f 14/1/1 5/1/1 13/1/1
f 15/1/1 11/1/1 10/1/1
f 16/4/1 12/4/1 11/4/1
f 16/1/1 11/1/1 15/1/1
f 17/1/1 5/1/1 14/1/1
f 17/4/1 14/4/1 13/4/1
f 18/4/1 9/4/1 5/4/1
f 18/1/1 5/1/1 17/1/1
f 18/4/1 10/4/1 9/4/1
f 19/1/1 15/1/1 10/1/1
f 19/4/1 10/4/1 18/4/1
f 20/4/1 16/4/1 15/4/1
f 20/1/1 15/1/1 19/1/1
f 21/1/1 7/1/1 12/1/1
f 21/4/1 16/4/1 20/4/1
f 21/4/1 12/4/1 16/4/1
f 22/4/1 8/4/1 7/4/1
f 22/1/1 7/1/1 21/1/1
f 23/4/1 20/4/1 19/4/1
f 23/4/1 21/4/1 20/4/1
f 23/4/1 22/4/1 21/4/1
f 23/4/1 18/4/1 17/4/1
f 23/4/1 17/4/1 13/4/1
f 23/4/1 19/4/1 18/4/1
f 24/4/1 22/4/1 23/4/1
f 25/4/1 23/4/1 13/4/1
f 26/4/1 23/4/1 25/4/1
f 27/3/1 24/3/1 23/3/1
f 27/4/1 23/4/1 26/4/1
f 28/4/1 22/4/1 24/4/1
f 28/3/1 24/3/1 27/3/1
f 29/4/1 22/4/1 28/4/1
f 30/4/1 8/4/1 22/4/1
f 30/4/1 22/4/1 29/4/1
f 31/3/1 26/3/1 25/3/1
f 32/4/1 29/4/1 28/4/1
f 32/3/1 26/3/1 31/3/1
f 32/4/1 27/4/1 26/4/1
f 32/4/1 28/4/1 27/4/1
f 33/3/1 30/3/1 29/3/1
f 33/4/1 29/4/1 32/4/1
f 34/4/1 8/4/1 30/4/1
f 34/3/1 30/3/1 33/3/1
f 35/4/1 8/4/1 34/4/1
f 36/2/2 37/2/2 38/2/2
f 38/2/2 37/2/2 39/2/2
f 38/1/2 39/1/2 40/1/2
f 40/1/2 39/1/2 41/1/2
f 41/1/2 39/1/2 42/1/2
f 42/1/2 39/1/2 43/1/2
f 43/1/2 39/1/2 44/1/2
f 38/1/2 40/1/2 45/1/2
f 45/1/2 40/1/2 46/1/2
f 42/4/2 43/4/2 47/4/2
f 43/2/2 44/2/2 47/2/2
f 44/1/2 39/1/2 48/1/2
f 47/2/2 44/2/2 48/2/2
f 46/1/2 40/1/2 49/1/2
f 40/4/2 41/4/2 50/4/2
f 49/1/2 40/1/2 50/1/2
f 46/1/2 49/1/2 51/1/2
f 45/4/2 46/4/2 51/4/2
f 49/4/2 50/4/2 52/4/2
f 51/1/2 49/1/2 52/1/2
f 50/4/2 41/4/2 53/4/2
f 52/4/2 50/4/2 53/4/2
f 41/1/2 42/1/2 53/1/2
f 42/4/2 47/4/2 54/4/2
f 53/1/2 42/1/2 54/1/2
f 47/4/2 48/4/2 54/4/2
f 48/1/2 39/1/2 55/1/2
f 54/4/2 48/4/2 55/4/2
f 55/1/2 39/1/2 56/1/2
f 52/4/2 53/4/2 57/4/2
f 51/4/2 52/4/2 57/4/2
f 55/4/2 56/4/2 57/4/2
f 54/4/2 55/4/2 57/4/2
f 53/4/2 54/4/2 57/4/2
f 57/4/2 56/4/2 58/4/2
f 58/4/2 56/4/2 59/4/2
f 59/4/2 56/4/2 60/4/2
f 51/4/2 57/4/2 61/4/2
f 57/3/2 58/3/2 61/3/2
f 58/4/2 59/4/2 62/4/2
f 61/3/2 58/3/2 62/3/2
f 59/3/2 60/3/2 63/3/2
f 62/4/2 59/4/2 63/4/2
f 60/4/2 56/4/2 64/4/2
f 63/3/2 60/3/2 64/3/2
f 45/4/2 51/4/2 65/4/2
f 62/4/2 63/4/2 65/4/2
f 63/4/2 64/4/2 65/4/2
f 51/4/2 61/4/2 65/4/2
f 61/4/2 62/4/2 65/4/2
f 64/4/2 56/4/2 66/4/2
f 65/4/2 64/4/2 66/4/2
f 72/4/3 70/4/3 69/4/3
f 72/3/3 71/3/3 70/3/3
f 73/3/3 71/3/3 72/3/3
f 74/1/3 69/1/3 68/1/3
f 74/4/3 72/4/3 69/4/3
f 74/4/3 73/4/3 72/4/3
f 75/4/3 73/4/3 74/4/3
f 76/4/3 73/4/3 75/4/3
f 77/4/3 73/4/3 76/4/3
f 78/4/3 76/4/3 75/4/3
f 78/3/3 77/3/3 76/3/3
f 79/4/3 73/4/3 77/4/3
f 79/3/3 77/3/3 78/3/3
f 80/4/3 79/4/3 78/4/3
f 80/4/3 73/4/3 79/4/3
f 81/4/3 73/4/3 80/4/3
f 82/4/3 80/4/3 78/4/3
f 82/3/3 81/3/3 80/3/3
f 83/3/3 81/3/3 82/3/3
f 84/4/3 82/4/3 78/4/3
f 84/4/3 83/4/3 82/4/3
f 85/4/3 83/4/3 84/4/3
f 86/1/3 74/1/3 68/1/3
f 86/1/3 75/1/3 74/1/3
f 87/4/3 78/4/3 75/4/3
f 87/1/3 75/1/3 86/1/3
f 87/4/3 84/4/3 78/4/3
f 88/3/3 85/3/3 84/3/3
f 88/4/3 84/4/3 87/4/3
f 89/3/3 85/3/3 88/3/3
f 90/1/3 86/1/3 68/1/3
f 91/4/3 87/4/3 86/4/3
f 91/1/3 86/1/3 90/1/3
f 91/4/3 88/4/3 87/4/3
f 91/4/3 89/4/3 88/4/3
f 92/2/3 68/2/3 67/2/3
f 93/1/3 90/1/3 68/1/3
f 93/2/3 68/2/3 92/2/3
f 94/4/3 91/4/3 90/4/3
f 94/1/3 90/1/3 93/1/3
f 95/4/3 89/4/3 91/4/3
f 95/4/3 91/4/3 94/4/3
f 97/1/4 98/1/4 100/1/4
f 98/4/4 99/4/4 100/4/4
f 100/4/4 99/4/4 101/4/4
f 100/1/4 101/1/4 102/1/4
f 101/4/4 99/4/4 102/4/4
f 102/4/4 99/4/4 103/4/4
f 100/1/4 102/1/4 104/1/4
f 102/1/4 103/1/4 104/1/4
f 103/4/4 99/4/4 105/4/4
f 104/1/4 103/1/4 105/1/4
f 105/4/4 99/4/4 106/4/4
f 106/4/4 99/4/4 107/4/4
f 100/1/4 104/1/4 108/1/4
f 104/4/4 105/4/4 108/4/4
f 105/4/4 106/4/4 108/4/4
f 108/4/4 106/4/4 109/4/4
f 106/3/4 107/3/4 110/3/4
f 109/4/4 106/4/4 110/4/4
f 107/4/4 99/4/4 111/4/4
f 110/3/4 107/3/4 111/3/4
f 109/4/4 110/4/4 112/4/4
f 108/1/4 109/1/4 112/1/4
f 110/4/4 111/4/4 112/4/4
f 112/4/4 111/4/4 113/4/4
f 108/1/4 112/1/4 114/1/4
f 112/1/4 113/1/4 114/1/4
f 113/4/4 111/4/4 115/4/4
f 114/1/4 113/1/4 115/1/4
f 100/1/4 108/1/4 116/1/4
f 108/1/4 114/1/4 116/1/4
f 114/4/4 115/4/4 117/4/4
f 116/1/4 114/1/4 117/1/4
f 111/4/4 99/4/4 118/4/4
f 117/4/4 115/4/4 118/4/4
f 115/4/4 111/4/4 118/4/4
f 118/4/4 99/4/4 119/4/4
f 97/1/4 100/1/4 120/1/4
f 100/1/4 116/1/4 120/1/4
f 116/4/4 117/4/4 121/4/4
f 120/1/4 116/1/4 121/1/4
f 117/4/4 118/4/4 121/4/4
f 118/3/4 119/3/4 122/3/4
f 121/4/4 118/4/4 122/4/4
f 122/3/4 119/3/4 123/3/4
f 97/1/4 120/1/4 124/1/4
f 120/4/4 121/4/4 124/4/4
f 122/4/4 123/4/4 124/4/4
f 121/4/4 122/4/4 124/4/4
f 124/4/4 123/4/4 125/4/4
f 96/2/4 97/2/4 126/2/4
f 97/1/4 124/1/4 127/1/4
f 126/2/4 97/2/4 127/2/4
f 124/1/4 125/1/4 127/1/4
f 125/4/4 123/4/4 128/4/4
f 127/1/4 125/1/4 128/1/4
f 128/4/4 123/4/4 129/4/4
f 132/2/5 131/2/5 130/2/5
f 133/2/5 131/2/5 132/2/5
f 134/3/6 135/3/6 141/3/6
f 135/4/6 136/4/6 142/4/6
f 141/3/6 135/3/6 142/3/6
f 136/3/6 137/3/6 143/3/6
f 142/4/6 136/4/6 143/4/6
f 137/4/6 138/4/6 144/4/6
f 143/3/6 137/3/6 144/3/6
f 138/3/6 139/3/6 145/3/6
f 144/4/6 138/4/6 145/4/6
f 139/4/6 140/4/6 146/4/6
f 145/3/6 139/3/6 146/3/6
f 144/4/6 145/4/6 147/4/6
f 141/4/6 142/4/6 147/4/6
f 145/4/6 146/4/6 147/4/6
f 143/4/6 144/4/6 147/4/6
f 142/4/6 143/4/6 147/4/6
f 147/4/6 146/4/6 148/4/6
f 146/4/6 140/4/6 149/4/6
f 148/4/6 146/4/6 149/4/6
f 149/4/6 140/4/6 150/4/6
f 147/3/6 148/3/6 151/3/6
f 141/4/6 147/4/6 151/4/6
f 148/4/6 149/4/6 152/4/6
f 151/3/6 148/3/6 152/3/6
f 149/3/6 150/3/6 153/3/6
f 152/4/6 149/4/6 153/4/6
f 150/4/6 140/4/6 154/4/6
f 153/3/6 150/3/6 154/3/6
f 152/4/6 153/4/6 155/4/6
f 151/4/6 152/4/6 155/4/6
f 153/4/6 154/4/6 155/4/6
f 155/4/6 154/4/6 156/4/6
f 151/4/6 155/4/6 157/4/6
f 155/3/6 156/3/6 158/3/6
f 157/4/6 155/4/6 158/4/6
f 156/4/6 154/4/6 159/4/6
f 158/3/6 156/3/6 159/3/6
f 154/4/6 140/4/6 160/4/6
f 159/4/6 154/4/6 160/4/6
f 141/4/6 151/4/6 161/4/6
f 151/4/6 157/4/6 161/4/6
f 161/4/6 157/4/6 162/4/6
f 157/3/6 158/3/6 163/3/6
f 162/4/6 157/4/6 163/4/6
f 158/4/6 159/4/6 164/4/6
f 163/3/6 158/3/6 164/3/6
f 159/3/6 160/3/6 165/3/6
f 164/4/6 159/4/6 165/4/6
f 160/4/6 140/4/6 166/4/6
f 165/3/6 160/3/6 166/3/6
f 162/4/6 163/4/6 167/4/6
f 164/4/6 165/4/6 167/4/6
f 165/4/6 166/4/6 167/4/6
f 163/4/6 164/4/6 167/4/6
f 167/4/6 166/4/6 168/4/6
f 162/4/6 167/4/6 169/4/6
f 167/3/6 168/3/6 169/3/6
f 168/4/6 166/4/6 170/4/6
f 169/3/6 168/3/6 170/3/6
f 161/3/6 162/3/6 171/3/6
f 162/4/6 169/4/6 172/4/6
f 171/3/6 162/3/6 172/3/6
f 169/4/6 170/4/6 172/4/6
f 170/4/6 166/4/6 173/4/6
f 172/4/6 170/4/6 173/4/6
f 173/4/6 166/4/6 174/4/6
f 171/4/6 172/4/6 175/4/6
f 172/4/6 173/4/6 175/4/6
f 173/3/6 174/3/6 176/3/6
f 175/4/6 173/4/6 176/4/6
f 174/4/6 166/4/6 177/4/6
f 176/3/6 174/3/6 177/3/6
f 166/4/6 140/4/6 178/4/6
f 177/4/6 166/4/6 178/4/6
